<?xml version="1.0" encoding="utf-8" ?><svg xmlns="http://www.w3.org/2000/svg" xmlns:xlink="http://www.w3.org/1999/xlink" width="80" height="80" viewBox="0 0 80 80"><path d="M30.0005 0L33.7178 0C37.9131 2.64176 38.0861 3.82783 38.0435 8.78222C39.837 9.24106 44.924 11.0142 45.9134 12.5208C46.2442 14.7353 42.7026 17.1811 41.2212 18.9078C36.8867 16.3777 32.7283 15.3649 27.6898 16.6886C23.7278 17.7157 20.3355 20.2735 18.2581 23.8002C17.2511 25.5442 16.5863 27.4646 16.2996 29.458C15.8347 32.4842 15.9998 37.672 16.0047 40.9092L16.0103 59.9371C25.9227 60.0027 38.1164 60.2805 47.9552 59.9533C47.9805 56.1108 47.9096 51.8095 48.0423 48.0073C50.5588 48.0038 53.5374 47.9303 56.013 48.0817C56.009 51.9912 56.0734 56.0357 56.0178 59.928C58.6856 59.9301 61.3531 59.9819 64.019 60.0834C64.0023 62.735 64.0031 65.3868 64.0212 68.0384C50.277 68.3193 35.9169 68.0905 22.1166 68.1003L7.58804 68.1183C5.61286 68.1224 1.75808 68.2426 0 68.0716L0 59.9599C2.64672 59.9704 5.29348 59.9661 7.94015 59.9469C8.01863 53.3644 8.03462 46.7813 7.9881 40.1985C7.9842 36.4183 7.76476 32.4322 8.3021 28.6997C9.82594 18.1145 16.1154 12.094 25.7799 8.74852C26.2161 4.09178 25.9568 2.68993 30.0005 0Z"/><path d="M60.0426 12.0066C62.6989 11.957 65.356 11.982 68.0109 12.0815C67.9427 15.9357 68.021 20.0297 68.0198 23.9078L80 24.0507L80 32.0798C76.777 32.0824 70.9656 32.3912 68.0558 32.0359C67.9992 36.0177 68.0209 40.0578 68.0089 44.0447L59.9833 44.0804C60.0935 40.2781 60.0106 36.0471 60.0485 32.1928L47.9953 32.0566C47.9911 29.7533 47.8906 26.2106 48.1597 24.0252L59.9221 23.9438L60.0426 12.0066Z"/><path d="M23.8311 72.0306C29.296 71.9941 34.7611 71.9992 40.226 72.0459C39.3276 75.3855 38.7624 77.3521 35.5059 79.231L34.1816 80L29.8144 80C26.589 78.0444 25.0905 77.2367 24.1585 73.4344C24.0444 72.9677 23.9352 72.4997 23.8311 72.0306Z"/></svg>