<?xml version="1.0" encoding="utf-8" ?><svg xmlns="http://www.w3.org/2000/svg" xmlns:xlink="http://www.w3.org/1999/xlink" width="76" height="82" viewBox="0 0 76 82"><path d="M54.1356 9.08611C54.9132 9.04415 55.7603 9.0046 56.5391 9.02989C61.3879 9.16439 65.9796 11.2397 69.2844 14.7904C72.4925 18.2409 74.1954 22.8264 74.0171 27.5345C73.7747 34.3095 70.2121 38.0854 66.3295 43.1257L58.4228 53.3732C55.4547 57.2146 47.2772 68.2635 44.1494 71.1598C39.5717 75.3791 33.5225 77.6359 27.2998 77.4459C20.8539 77.1826 14.7719 74.3883 10.3731 69.6693C6.0687 65.0303 3.80558 58.8582 4.09088 52.5363C4.42833 43.8687 8.23562 39.6942 13.2738 33.1451L21.8265 22.0512C24.1135 19.0896 26.4136 15.8349 28.9412 13.0731C31.481 10.298 36.8734 12.9025 35.505 16.8054C34.7576 18.9372 32.3681 21.64 30.9252 23.4958L20.412 37.0175C16.1179 42.5452 11.075 47.7466 12.1836 55.2959C14.1615 68.7654 29.1388 73.7387 39.1567 64.7799C41.403 62.6012 45.9686 56.2759 48.0662 53.6013C52.9681 47.3508 57.8674 40.8977 62.7334 34.5972C64.914 31.7738 66.4503 29.1517 65.9078 25.4903C65.4994 22.8598 64.0536 20.5029 61.8939 18.9467C59.6602 17.306 56.8879 16.852 54.1773 17.2741C52.7756 17.4923 51.2362 17.98 50.1339 18.9029C46.6822 21.7928 43.8503 26.3992 41.0879 29.9693C36.9197 35.3562 32.6056 40.6842 28.5996 46.1897C27.6165 47.5409 26.3193 49.14 26.6068 50.9016C26.7698 51.9 27.3573 52.7805 28.1771 53.3625C29.2714 54.1394 30.5891 54.4042 31.8316 53.8023C36.9274 51.3337 48.4411 29.8922 53.6735 29.0602C54.5702 28.9176 55.4396 29.1055 56.1779 29.6369C57.007 30.2337 57.7383 31.1657 57.8963 32.1936C58.1426 33.7966 57.081 35.287 56.1929 36.5175C53.4267 40.3505 50.4189 44.0502 47.5257 47.7896C44.295 51.9652 41.0462 57.1435 36.8224 60.3444C35.5331 61.3214 34.0656 61.829 32.4775 62.0827C29.4606 62.5647 26.1984 61.8972 23.7131 60.0919C21.0786 58.178 19.1396 55.4583 18.6291 52.2055C18.0038 48.2217 19.4047 45.0633 21.7091 41.9202C25.4887 36.7651 29.5371 31.7762 33.4384 26.7104C36.437 22.8167 41.1911 15.6576 44.8136 12.8272C47.6389 10.6197 50.6484 9.62249 54.1356 9.08611Z"/></svg>