<?xml version="1.0" encoding="utf-8" ?><svg xmlns="http://www.w3.org/2000/svg" xmlns:xlink="http://www.w3.org/1999/xlink" width="152" height="124" viewBox="0 0 152 124"><path fill="#FEFEFE" d="M136.848 0L142.746 0C146.23 1.48266 148.8 2.84836 150.691 6.31153C151 6.87835 151.841 8.79924 152 9.04477L152 14.9736C149.156 20.6875 140.813 30.0551 136.387 35.4324L111.487 65.6753L81.8227 101.72C76.66 107.992 71.5696 114.453 66.1644 120.514C64.0273 122.911 62.0447 123.047 60.7315 124L54.4582 124C48.8017 121.208 42.9145 114.516 38.3273 109.912L24.0739 95.7692L10.9762 82.6887C7.93693 79.6494 4.80025 76.5811 2.01626 73.2974C1.3983 72.5685 0.598865 70.355 0 69.2544L0 63.7632C0.83263 62.6247 0.921601 60.8934 3.19958 58.3015C5.13669 56.0587 7.89531 54.6905 10.853 54.5055C18.8229 54.0164 23.4994 60.9056 28.6299 66.0285L46.3457 83.7493C49.6739 87.0785 53.4631 91.0664 56.9425 94.1474C58.7561 91.2731 64.8663 84.1539 67.2567 81.235L88.6214 55.2685L116.48 21.4006C121.388 15.4232 126.311 9.21521 131.426 3.41206C132.759 1.89878 135.085 0.996427 136.848 0Z"/></svg>