<svg width="22" height="16" viewBox="0 0 22 16" fill="none" xmlns="http://www.w3.org/2000/svg">
<path d="M17 8H14L18 12L22 8H19C19 5.87827 18.1571 3.84344 16.6569 2.34315C15.1566 0.842855 13.1217 0 11 0C9.43 0 7.97 0.46 6.74 1.24L8.2 2.7C9.06099 2.23846 10.0231 1.99793 11 2C12.5913 2 14.1174 2.63214 15.2426 3.75736C16.3679 4.88258 17 6.4087 17 8ZM15.26 14.76L13.8 13.3C12.96 13.74 12 14 11 14C9.4087 14 7.88258 13.3679 6.75736 12.2426C5.63214 11.1174 5 9.5913 5 8H8L4 4L0 8H3C3 10.1217 3.84285 12.1566 5.34315 13.6569C6.84344 15.1571 8.87827 16 11 16C12.57 16 14.03 15.54 15.26 14.76Z" fill="white"/>
</svg>
