<svg width="13" height="18" viewBox="0 0 13 18" fill="none" xmlns="http://www.w3.org/2000/svg">
<path d="M3.02344 18.1406C4.69688 18.1406 6.04688 16.7906 6.04688 15.1172V12.0938H3.02344C1.35 12.0938 0 13.4438 0 15.1172C0 16.7906 1.35 18.1406 3.02344 18.1406ZM0 9.07031C0 7.39687 1.35 6.04688 3.02344 6.04688H6.04688V12.0938H3.02344C1.35 12.0938 0 10.7437 0 9.07031ZM0 3.02344C0 1.35 1.35 0 3.02344 0H6.04688V6.04688H3.02344C1.35 6.04688 0 4.69688 0 3.02344ZM6.04688 0H9.07031C10.7437 0 12.0938 1.35 12.0938 3.02344C12.0938 4.69688 10.7437 6.04688 9.07031 6.04688H6.04688V0ZM12.0938 9.07031C12.0938 10.7437 10.7437 12.0938 9.07031 12.0938C7.39687 12.0938 6.04688 10.7437 6.04688 9.07031C6.04688 7.39687 7.39687 6.04688 9.07031 6.04688C10.7437 6.04688 12.0938 7.39687 12.0938 9.07031Z" fill="black"/>
</svg>
