<svg width="17" height="18" viewBox="0 0 17 18" fill="none" xmlns="http://www.w3.org/2000/svg">
<path d="M4.49531 0.296559C5.16753 0.524513 5.80683 0.840739 6.3966 1.23703C7.23005 1.02265 8.08715 0.915107 8.94746 0.916944C9.83593 0.916944 10.6931 1.02843 11.4965 1.23613C12.0861 0.840225 12.7251 0.524304 13.3969 0.296559C14.0206 0.0834707 14.909 -0.261787 15.4369 0.325331C15.7948 0.724535 15.8843 1.39347 15.9478 1.90417C16.0194 2.4742 16.0364 3.21686 15.8485 3.95413C16.567 4.88651 17 5.9987 17 7.2107C17 9.04668 16.0104 10.6408 14.5458 11.7449C13.8405 12.269 13.0588 12.6803 12.2284 12.9641C12.4199 13.4047 12.5264 13.892 12.5264 14.4036V17.1009C12.5264 17.3393 12.4321 17.568 12.2643 17.7367C12.0965 17.9053 11.8689 18 11.6316 18H6.26329C6.02599 18 5.79841 17.9053 5.63062 17.7367C5.46283 17.568 5.36856 17.3393 5.36856 17.1009V16.2099C4.5141 16.3151 3.79742 16.2216 3.18811 15.9617C2.55107 15.6902 2.10729 15.2694 1.77355 14.8666C1.45682 14.4854 1.11145 13.6258 0.612198 13.4586C0.500693 13.4213 0.397593 13.3623 0.308785 13.2849C0.219977 13.2076 0.147199 13.1134 0.0946077 13.0078C-0.0116057 12.7945 -0.0291493 12.5475 0.0458363 12.3212C0.120822 12.0949 0.282194 11.9078 0.494453 11.8011C0.706712 11.6944 0.952471 11.6767 1.17766 11.7521C1.77355 11.9517 2.16186 12.3833 2.4276 12.7303C2.85707 13.2878 3.20601 14.0161 3.886 14.3065C4.16605 14.426 4.57673 14.5043 5.21914 14.4162L5.36856 14.3856C5.37062 13.8963 5.472 13.4126 5.66651 12.9641C4.83609 12.6803 4.05439 12.269 3.34916 11.7449C1.8845 10.6408 0.894931 9.04758 0.894931 7.2107C0.894931 6.0005 1.32708 4.8892 2.04376 3.95773C1.85587 3.22046 1.87197 2.476 1.94355 1.90506L1.94802 1.8709C2.01334 1.34762 2.08939 0.731728 2.45444 0.325331C2.98233 -0.261787 3.87168 0.08437 4.49441 0.297459L4.49531 0.296559Z" fill="black"/>
</svg>
