<?xml version="1.0" encoding="utf-8" ?><svg xmlns="http://www.w3.org/2000/svg" xmlns:xlink="http://www.w3.org/1999/xlink" width="308" height="512" viewBox="0 0 308 512"><path fill="white" d="M249.807 0L261.965 0C263.138 0.665927 266.646 1.08609 268.172 1.43955C270.195 1.91006 272.189 2.49858 274.143 3.2021C288.328 8.25173 300.082 20.8045 304.788 35.0845C309.045 48.1171 307.943 62.3082 301.723 74.5267C297.458 82.9184 291.828 87.8038 285.293 94.3202L272.926 106.655L242.025 137.557L154.597 224.995L133.348 246.226C131.635 247.936 124.764 254.599 123.898 256.018C124.952 257.659 131.648 264.055 133.473 265.875L154.862 287.258L252.755 385.16L278.127 410.534C285.458 417.863 295.829 426.949 300.726 435.651C306.955 446.584 308.882 459.447 306.13 471.724C303.232 485.048 295.114 496.655 283.592 503.947C279.573 506.574 275.186 508.589 270.574 509.926C269.468 510.25 263.49 511.659 262.933 512L249.063 512C248.119 511.458 242.994 510.292 241.615 509.931C226.757 506.042 218.165 495.435 207.634 484.881L180.844 458.07L97.3273 374.555L39.9115 317.148L22.0828 299.338C18.7428 295.998 14.1673 291.676 11.271 288.096C6.72275 282.428 3.40487 275.875 1.52873 268.855C0.99854 266.914 0.778623 263.825 0 262.204L0 250.054C0.711402 248.803 0.6523 246.306 1.03676 244.831C1.62955 242.558 2.27125 240.292 3.09353 238.091C5.25908 232.264 8.4734 226.883 12.5775 222.214C16.6184 217.706 22.7783 211.901 27.1375 207.55L54.0142 180.692L138.11 96.5915L196.051 38.6535L213.114 21.5784C215.975 18.699 220.467 13.9005 223.442 11.4864C229.203 6.83675 235.874 3.44644 243.026 1.53425C244.994 0.997353 248.119 0.857095 249.807 0Z"/></svg>