<?xml version="1.0" encoding="utf-8" ?><svg xmlns="http://www.w3.org/2000/svg" xmlns:xlink="http://www.w3.org/1999/xlink" width="60" height="52" viewBox="0 0 60 52"><path fill="#FEFEFE" d="M19.8539 0L21.5442 0C24.7833 2.26682 28.4566 4.44755 31.7946 6.67437C33.9904 8.1392 37.4102 10.5621 39.5841 11.7128C45.3003 7.0381 51.5184 4.09101 57.0941 0L60 0L60 38.9216C58.2204 40.4601 54.2803 42.8531 52.2236 44.1654C48.1623 46.7118 44.1424 49.3236 40.1655 52L38.3643 52C33.0136 48.033 26.275 44.3429 20.6561 40.3211C15.4983 44.0329 8.17566 48.4557 2.74088 52L0 52L0 13.1009C3.59727 9.84503 10.5333 6.14266 14.6943 3.30986C16.3696 2.16934 18.1859 1.36999 19.8539 0ZM3.96697 46.6303C7.62909 43.6043 16.4602 37.9723 20.6142 35.7327C26.1629 38.8777 31.4281 42.4204 36.7406 45.9449C37.6876 46.5732 38.5503 47.1647 39.5477 47.7178C43.4212 44.5519 47.0969 42.4454 51.3308 39.7846C52.4399 39.0875 55.4893 37.3171 56.288 36.5665C55.8165 34.0266 55.86 25.1849 55.9324 22.1538C56.0588 16.8603 55.7327 10.8832 55.8539 5.70332C51.4931 8.69531 43.8987 13.7612 39.3772 16.3721C37.552 15.3225 20.8377 4.49766 20.4292 4.45251C16.1271 7.5895 11.378 10.2145 6.92457 13.1705C4.27975 14.9261 4.14876 15.0863 4.08735 18.4135C4.0591 19.9441 4.07647 21.5644 4.07767 23.1018L4.10254 38.2267C4.11049 40.6615 4.30387 44.3594 3.96697 46.6303Z"/></svg>