<?xml version="1.0" encoding="utf-8" ?><svg xmlns="http://www.w3.org/2000/svg" xmlns:xlink="http://www.w3.org/1999/xlink" width="62" height="54" viewBox="0 0 62 54"><path fill="#FEFEFE" d="M20.5587 0L22.9733 0C24.669 1.33764 28.0505 3.39044 30.0099 4.61879C33.191 6.61301 37.2612 9.64862 40.4463 11.3769C46.0008 7.7615 51.3814 3.95045 57.131 0.628261C57.3599 0.495993 57.7019 0.188518 57.901 0L62 0L62 40.3077C60.6226 41.7581 56.104 44.5097 54.253 45.6951C49.9411 48.4087 45.6639 51.1772 41.4226 54L39.0419 54C33.6543 50.1079 26.8576 46.4625 21.7787 42.5676C15.8035 46.1605 9.91651 50.3348 3.96634 54L0 54L0 13.7977C2.53485 11.0078 16.6409 2.57351 20.5587 0ZM6.03426 16.7531L6.10341 35.0336C6.10695 37.9872 6.24118 42.7159 5.96359 45.5304C8.35638 43.885 10.9744 42.0394 13.3983 40.5593C16.014 38.9621 19.1847 35.9245 22.2854 36.2859C25.6254 36.6752 38.5595 47.138 40.5873 47.266C43.7738 45.2569 46.9409 43.0005 50.1442 40.9501C51.4088 40.1407 55.1703 37.8787 56.1934 37.0609C55.8789 33.5699 55.854 29.4768 55.9392 25.9433C56.0759 20.2713 55.664 14.2385 55.9552 8.61076C51.9993 10.9856 48.2013 13.6286 44.3074 16.1032C43.087 16.8102 40.9753 18.351 39.5164 17.7733C35.2348 16.0778 31.4609 12.7308 27.5089 10.3892C26.6864 9.90184 22.1374 6.76987 21.5571 6.66173C17.1701 9.55082 9.92082 13.7839 6.03426 16.7531Z"/></svg>