<?xml version="1.0" encoding="utf-8" ?><svg xmlns="http://www.w3.org/2000/svg" xmlns:xlink="http://www.w3.org/1999/xlink" width="82" height="75" viewBox="0 0 82 75"><path fill="#969596" d="M25.9085 0L28.6848 0C34.0805 3.27932 41.365 6.25662 46.9881 9.32296C49.0413 10.4426 51.8594 11.6055 53.7807 12.8903C58.9262 9.74771 64.1218 6.87464 69.353 3.89686C70.383 3.31055 75.2494 0.59026 75.9035 0L78.8031 0C79.9517 0.939537 81.3696 2.16996 81.4025 3.73967C81.5231 9.50554 81.4277 15.5193 81.4274 21.2733L81.4377 43.8851C81.4398 47.286 81.7521 56.4768 80.9348 59.2119C80.2955 59.9511 79.4481 60.7334 78.6074 61.2338C71.7879 65.2925 64.8223 69.1214 57.9377 73.072C56.6877 73.7893 55.5138 74.4404 54.183 75L53.55 75C45.5851 70.8416 35.1051 66.1001 27.6223 61.8377C21.2979 65.3483 10.441 72.1391 4.25061 75L0 75L0 15.9069C3.66631 11.3553 20.7086 4.12634 25.9085 0ZM31.3098 54.7205C35.302 56.7608 39.3091 58.7719 43.3307 60.7534C45.1176 61.643 48.2894 63.1202 49.8827 64.1404C50.1145 62.5515 50.0467 50.6658 49.9925 48.3757C49.7739 39.15 50.2749 29.0054 49.939 19.893C44.2485 16.9974 37.1639 13.1654 31.3812 10.6944C31.8323 19.189 31.2807 29.3965 31.488 38.0821C31.5624 41.1952 31.6253 52.5193 31.3098 54.7205ZM8.08614 19.5983C8.05579 34.0839 7.95383 48.7837 8.10712 63.2569C8.24471 63.3497 8.38888 63.4705 8.54648 63.4911C13.3995 60.441 18.5784 57.6951 23.5506 54.8204C22.8656 48.8614 23.9924 12.5913 22.9411 11.2487C17.9693 13.9497 13.0237 16.9608 8.08614 19.5983ZM58.0871 19.5975C58.0706 23.8547 57.9045 62.7054 58.2431 63.411L58.5519 63.4931C63.3328 60.4745 68.616 57.6492 73.5458 54.8229C73.1424 50.8179 73.2955 45.2122 73.2938 41.0669L73.2871 18.8222C73.2865 17.5039 73.4724 11.9257 72.9447 11.2483C67.9647 13.9518 63.0333 16.9481 58.0871 19.5975Z"/></svg>