<svg width="16" height="20" viewBox="0 0 16 20" fill="none" xmlns="http://www.w3.org/2000/svg">
<path d="M14 -3.8147e-06C15.1046 -3.29929e-06 16 0.895427 16 2V18C16 19.1046 15.1046 20 14 20H2C0.895431 20 0 19.1046 0 18V2C3.73667e-06 0.89543 0.895433 -3.2057e-06 2 -3.8147e-06H14ZM2 18H14V2H2V18ZM12 15C12.5523 15 13 15.4477 13 16C13 16.5523 12.5523 17 12 17H10C9.44771 17 9 16.5523 9 16C9 15.4477 9.44771 15 10 15H12ZM12 11C12.5523 11 13 11.4477 13 12C13 12.5523 12.5523 13 12 13H4C3.44772 13 3 12.5523 3 12C3 11.4477 3.44772 11 4 11H12ZM12 8C12.5523 8 13 8.44771 13 9C13 9.55228 12.5523 10 12 10H4C3.44772 10 3 9.55228 3 9C3 8.44771 3.44772 8 4 8H12ZM10.1025 4.00488C10.6067 4.05621 11 4.48232 11 5C11 5.51767 10.6067 5.94378 10.1025 5.99511L10 6H4C3.44772 6 3 5.55228 3 5C3 4.44771 3.44772 4 4 4H10L10.1025 4.00488Z" fill="#939396"/>
</svg>
