<svg width="20" height="20" viewBox="0 0 20 20" fill="none" xmlns="http://www.w3.org/2000/svg">
<path d="M13.8213 1.3657C14.946 0.157301 16.8356 0.0849837 18.0498 1.20359L18.124 1.27097C19.3377 2.38947 19.4195 4.27875 18.3076 5.49851L7.1484 17.7407C7.03438 17.8657 6.88975 17.9599 6.72946 18.0141L2.22946 19.5376C1.8708 19.6588 1.47404 19.5667 1.20504 19.3003C0.93633 19.0338 0.841068 18.6384 0.958951 18.2788L2.45895 13.7075C2.50403 13.5702 2.57832 13.4442 2.67672 13.3384L13.8213 1.3657ZM16.6953 2.67429C16.2906 2.30143 15.6601 2.32521 15.2851 2.72801L4.29001 14.5395L3.48239 17.0014L5.84274 16.2026L16.83 4.15086C17.2006 3.74425 17.1731 3.11448 16.7685 2.74168L16.6953 2.67429Z" fill="#939396"/>
</svg>
