<?xml version="1.0" encoding="utf-8" ?><svg xmlns="http://www.w3.org/2000/svg" xmlns:xlink="http://www.w3.org/1999/xlink" width="104" height="104" viewBox="0 0 104 104"><path fill="#FEFEFE" d="M50.3581 0L53.5546 0C55.2536 1.50478 55.9959 2.07556 56.0294 4.49939C56.1468 12.9843 56.0826 21.6237 56.0885 30.1013L56.096 41.7891C56.0975 43.3694 56.1939 46.5115 56.0219 47.9819L86.6285 47.9185C90.1265 47.9173 93.6306 47.8996 97.1285 47.9111C100.083 47.9209 101.59 47.8938 103.818 50.1032C103.879 50.164 103.94 50.2252 104 50.2868L104 53.4242C103.125 54.6452 102.092 55.7817 100.517 55.8845C96.1188 56.1713 91.1856 56.0424 86.7698 56.0394L56.0173 56.0192C56.095 65.9015 56.1219 75.7842 56.0979 85.6668C56.0997 90.5704 56.2235 95.6183 55.9203 100.511C55.8252 102.045 54.6997 103.094 53.5663 104L50.2985 104C49.7379 103.558 48.9263 102.7 48.3947 102.17C47.6876 97.4315 47.9335 89.6407 47.9334 84.5372L47.9967 56.0108L18.7195 56.0408C13.7369 56.0494 8.34493 56.1963 3.37796 55.8594C1.54956 55.7354 1.06949 54.8741 0 53.495L0 50.6541C1.13853 49.249 1.6031 48.2614 3.57612 48.127C8.76055 47.7739 14.0163 47.9204 19.2185 47.923L48.0062 47.9384C47.8447 37.9867 47.9997 27.9918 47.9418 18.0353C48.0333 13.1143 47.7244 8.1329 48.1072 3.22848C48.2287 1.67114 49.2194 0.846853 50.3581 0Z"/></svg>