<svg width="14" height="20" viewBox="0 0 14 20" fill="none" xmlns="http://www.w3.org/2000/svg">
<path d="M11 11C12.6569 11 14 12.3431 14 14V19C14 19.5523 13.5523 20 13 20C12.4477 20 12 19.5523 12 19V14C12 13.4477 11.5523 13 11 13H3C2.44772 13 2 13.4477 2 14V19C2 19.5523 1.55228 20 1 20C0.447715 20 0 19.5523 0 19V14C0 12.3431 1.34315 11 3 11H11ZM7 0C9.76142 0 12 2.23858 12 5C12 7.76142 9.76142 10 7 10C4.23858 10 2 7.76142 2 5C2 2.23858 4.23858 0 7 0ZM7 2C5.34315 2 4 3.34315 4 5C4 6.65685 5.34315 8 7 8C8.65685 8 10 6.65685 10 5C10 3.34315 8.65685 2 7 2Z" fill="#939396"/>
</svg>
