<?xml version="1.0" encoding="utf-8" ?><svg xmlns="http://www.w3.org/2000/svg" xmlns:xlink="http://www.w3.org/1999/xlink" width="308" height="512" viewBox="0 0 308 512"><path fill="white" d="M45.2928 0L57.1905 0C58.6484 0.722763 62.3283 1.08206 64.1452 1.52421C77.9067 4.8732 85.5834 12.9175 95.206 22.5677L112.268 39.6723L169.792 97.1995L252.421 179.824L278.968 206.347C288.095 215.461 298.977 224.709 303.71 236.947C308.759 249.738 308.498 264.014 302.987 276.612C300.664 281.825 297.509 286.625 293.647 290.827C289.633 295.267 284.419 300.185 280.111 304.482L256.271 328.315L181.961 402.622L118.476 466.106L97.8284 486.776C93.9927 490.615 89.4379 495.408 85.4062 498.936C80.5122 503.278 74.8566 506.676 68.7254 508.959C67.165 509.551 65.951 509.972 64.3852 510.438C62.9386 510.869 58.9118 511.434 57.9723 512L44.306 512C39.7583 510.26 36.1937 510.181 30.6525 507.718C17.96 502.076 7.72569 491.681 3.06467 478.505C2.3016 476.316 1.66933 474.085 1.17122 471.821C0.81891 470.239 0.615748 468.393 0 466.913L0 454.572C0.602278 453.597 0.867989 450.315 1.1784 448.947C4.9833 432.18 16.558 422.605 28.2323 410.939L57.9831 381.208L142.666 296.522L170.134 269.059C174.393 264.808 179.192 260.298 183.279 255.991L62.7207 135.414L29.9004 102.611C23.5926 96.3082 13.9387 87.287 8.96413 80.25C5.49766 75.243 2.94564 69.6616 1.42636 63.7644C0.94157 61.8684 0.751887 59.0858 0 57.4449L0 45.0531C0.409969 44.3057 0.615766 42.9546 0.752 42.1109C3.72345 23.7099 17.7217 7.82508 35.5097 2.30803C38.5362 1.36933 42.044 1.0526 45.0658 0.0749535L45.2928 0Z"/></svg>