<svg width="15" height="15" viewBox="0 0 15 15" fill="none" xmlns="http://www.w3.org/2000/svg">
<path d="M6.50469 0.0050781C8.05006 -0.0548116 9.56933 0.41652 10.8097 1.34063C12.2555 2.41905 13.2113 4.03001 13.4652 5.81612C13.6651 7.22958 13.4132 8.67005 12.7454 9.93163C12.5546 10.2905 12.3733 10.5633 12.1314 10.8871C12.3409 11.1046 12.5714 11.3275 12.7862 11.5424L14.0742 12.8311L14.5256 13.2812C14.7923 13.5468 14.995 13.707 14.9999 14.1147C15.0026 14.3487 14.9112 14.574 14.7462 14.7399C14.5816 14.9048 14.3586 14.9982 14.1256 14.9999C13.9462 15.0023 13.7704 14.9501 13.6215 14.8501C13.5307 14.7888 13.3938 14.6431 13.3112 14.5605L12.8584 14.1071L11.1384 12.3867C11.0537 12.3028 10.9699 12.2181 10.8868 12.1326C10.7001 12.2711 10.52 12.4005 10.3213 12.5225C9.35356 13.1198 8.25101 13.4638 7.11541 13.5226C5.29736 13.6148 3.51857 12.9722 2.17884 11.7393C0.867212 10.5293 0.0864495 8.84991 0.00648905 7.06681C-0.0719922 5.2726 0.56398 3.52045 1.77496 2.19459C2.99554 0.861592 4.69892 0.0730644 6.50469 0.0050781ZM7.05398 11.7549C9.80944 11.5956 11.9138 9.23148 11.7536 6.47511C11.5935 3.71874 9.22949 1.61445 6.47414 1.7756C3.72014 1.93667 1.61779 4.30011 1.77787 7.05515C1.93795 9.81018 4.29984 11.9141 7.05398 11.7549Z" fill="#949494"/>
</svg>
