<?xml version="1.0" encoding="utf-8" ?><svg xmlns="http://www.w3.org/2000/svg" xmlns:xlink="http://www.w3.org/1999/xlink" width="512" height="512" viewBox="0 0 512 512"><path d="M240.637 0L271.182 0C271.266 0.0231762 271.35 0.0463524 271.435 0.0695286C275.289 0.988696 280.778 0.856445 284.463 1.36354C293.676 2.63135 313.488 4.67063 321.069 8.60969C324.74 10.5027 327.804 13.3903 329.911 16.9424C332.784 21.7211 333.443 27.1987 334.501 32.6233L339.152 56.5289C340.068 61.2227 341.314 68.7304 342.732 72.9388C345.81 82.0755 354.198 89.0409 363.481 91.3437C374.065 93.9689 380.05 91.5626 389.79 88.3078L413.234 80.4332C418.593 78.6222 428.058 74.9437 433.34 74.5966C438.151 74.3082 442.928 75.5696 446.97 78.1957C450.762 80.6226 455.17 85.5712 458.23 89.0175C469.185 101.232 478.955 114.459 487.407 128.521C495.36 141.746 502.061 155.685 507.422 170.157C509.124 174.717 510.439 179.01 512 183.568L512 191.174C511.166 192.924 510.533 195.161 509.767 197.045C507.368 202.944 502.645 205.948 497.889 209.835L478.196 225.968C474.677 228.851 467.016 234.784 464.226 237.821C457.518 245.142 455.389 255.563 458.687 264.929C459.917 268.315 461.788 271.433 464.196 274.112C466.738 276.96 472.966 281.766 476.144 284.359L497.235 301.566C500.846 304.514 504.507 307.145 507.437 310.798C510.062 314.07 510.48 317.59 512 320.821L512 328.713L511.791 329.144C511.046 330.72 509.008 337.447 508.208 339.696C505.884 346.152 503.285 352.505 500.42 358.739C489.731 381.936 475.649 403.413 458.638 422.465C454.238 427.384 448.959 433.695 442.732 436.057C439.6 437.243 436.24 437.709 432.903 437.418C428.515 436.999 423.045 434.919 418.757 433.472L394.057 425.14C390.861 424.067 387.582 423.054 384.416 421.922C375.032 418.568 364.2 418.877 355.411 423.97C350.274 426.89 346.173 431.335 343.675 436.69C341.5 441.362 340.05 450.808 339.004 456.256L334.619 479.008C333.674 483.939 332.979 489.467 330.608 493.889C327.95 498.942 323.5 502.817 318.13 504.755C310.055 507.739 293.135 509.641 284.242 510.62C281.467 510.925 273.711 511.281 271.677 512L240.616 512C238.837 511.365 231.237 510.939 228.737 510.68C220.764 509.934 212.83 508.817 204.962 507.331C202 506.782 197.601 506.065 194.846 505.061C180.185 499.716 179.476 489.657 176.949 476.72L173.019 456.423C171.854 450.385 170.532 441.119 167.877 435.839C165.305 430.811 161.302 426.656 156.373 423.897C141.925 415.628 129.729 421.201 115.684 425.902L93.2373 433.421C84.8742 436.251 79.304 439.261 70.3133 436.35C62.7589 433.905 56.8345 426.547 51.6228 420.57C34.6083 401.186 20.6407 379.327 10.199 355.743C7.72595 350.207 5.48581 344.571 3.48444 338.847C2.63205 336.386 1.10737 330.745 0 328.71L0 320.59C0.405877 319.977 1.0343 318.074 1.27612 317.289C3.66283 309.548 8.66497 306.499 14.6538 301.579L35.8804 284.194C39.2531 281.434 45.8137 276.395 48.4792 273.24C50.7397 270.51 52.4626 267.376 53.5569 264.005C56.4304 255.002 54.3067 245.15 47.9793 238.13C45.0713 234.938 39.8574 230.987 36.3592 228.118L16.5738 211.916C13.0033 209.01 8.87565 205.941 5.67746 202.669C2.40216 199.318 1.76605 194.937 0 191.534L0 183.027C0.860773 181.579 2.15956 177.085 2.78338 175.239C3.89098 171.968 5.07305 168.723 6.32865 165.506C17.2512 137.284 34.5157 110.237 54.7768 87.8121C57.8493 84.4115 61.1233 80.574 64.9775 78.0796C68.7743 75.6619 73.2079 74.436 77.7075 74.5597C83.4311 74.6935 95.1374 79.2336 101.188 81.2791L123.666 88.8285C133.087 91.9847 139.776 94.0318 149.839 90.9433C158.677 88.2309 166.61 81.2484 169.424 72.3543C170.828 67.9178 171.933 61.1522 172.867 56.3311L177.388 32.9517C177.995 29.7706 178.542 26.5965 179.318 23.4363C184.289 3.20192 206.494 5.25366 222.59 1.95545C226.719 1.10932 237.355 1.18801 240.637 0ZM221.696 49.2129L217.734 69.5434C216.672 75.0387 215.71 80.5476 214.054 85.8995C208.8 102.34 198.073 116.485 183.658 125.978C166.079 137.648 144.548 141.769 123.902 137.414C116.431 135.865 106.822 132.285 99.459 129.81C95.666 128.534 87.6314 126.119 84.3006 124.717C79.4147 131.125 75.2566 135.965 70.5689 142.891C64.6753 151.664 59.4465 160.865 54.926 170.419C53.4392 173.532 52.1776 176.712 50.7367 179.785C55.8602 183.735 61.1463 188.186 66.164 192.305C70.0917 195.529 75.2892 199.553 78.866 203.043C90.8895 214.69 98.625 230.058 100.818 246.653C103.262 265.943 97.9606 285.415 86.0738 300.802C79.8409 308.847 74.4604 312.885 66.6796 319.251L50.758 332.308C58.4579 349.052 65.6554 363.475 77.1189 378.155C78.8942 380.429 82.4403 385.245 84.4546 387.119C95.1416 384.19 106.572 379.363 117.266 376.256C138.146 370.042 160.662 372.664 179.556 383.509C196.784 393.283 209.448 409.473 214.785 428.548C216.069 433.292 217.182 439.464 218.111 444.359C219.261 450.415 220.636 456.744 221.677 462.787C234.615 465.093 250.076 465.607 263.187 465.317C272.684 464.967 280.835 464.115 290.216 462.955L294.052 443.505C295.184 437.655 296.227 431.43 298.014 425.772C303.157 409.701 313.567 395.832 327.563 386.407C345.134 374.666 366.644 370.373 387.376 374.471C400.404 377.082 414.932 383.856 427.786 387.225L427.997 386.908C429.51 384.656 431.51 382.371 433.214 380.222C435.518 377.27 437.754 374.265 439.919 371.21C448.334 359.018 455.46 345.985 461.182 332.32L443.799 318.098C440.264 315.209 436.062 311.891 432.817 308.713C420.362 296.534 412.606 280.348 410.916 263.01C409.04 242.466 415.418 223.333 428.675 207.711C433.933 201.516 439.651 197.231 445.905 192.131C450.967 188.003 456.098 183.677 461.233 179.672C459.092 175.263 457.139 170.322 454.932 166.043C448.038 152.674 437.764 135.965 427.609 124.854C416.02 128.267 403.356 133.556 392.006 136.557C372.284 141.672 351.351 139.012 333.535 129.128C316.19 119.648 303.276 103.719 297.587 84.7885C296.254 80.2751 295.487 75.7492 294.553 71.1492C293.072 63.8504 291.813 56.4707 290.273 49.1872C276.483 47.1 262.527 46.3279 248.591 46.8813C242.378 46.9629 236.174 47.3807 230.006 48.1329C227.25 48.4469 224.425 48.9703 221.696 49.2129Z"/><path d="M255.05 155.12C288.204 154.882 322.192 170.607 341.515 198.063C390.022 266.985 339.968 355.037 257.092 356.941C167.772 355.663 117.706 259.33 177.39 189.491C196.626 166.981 225.88 156.187 255.05 155.12ZM262.316 309.966C279.24 307.508 293.297 300.725 303.717 286.66C311.889 275.658 315.33 261.85 313.277 248.3C311.156 234.237 302.995 221.308 291.462 213.13C278.344 203.829 265.388 201.091 249.709 202.104C232.539 204.71 218.91 210.831 208.258 225.244C200.164 236.257 196.715 250.007 198.652 263.536C200.872 277.526 208.521 290.074 219.939 298.456C232.715 307.883 246.663 311.113 262.316 309.966Z"/></svg>