<?xml version="1.0" encoding="utf-8" ?><svg xmlns="http://www.w3.org/2000/svg" xmlns:xlink="http://www.w3.org/1999/xlink" width="120" height="120" viewBox="0 0 120 120"><path fill="#FEFEFE" d="M52.8657 11.0588C54.8966 10.8287 57.2532 11.0569 59.2589 10.8668C69.9294 9.85499 78.8827 13.953 80.31 25.9655C84.8645 25.9612 99.3477 24.9634 102.45 26.9829C103.212 27.4796 103.853 28.2437 104.031 29.1543C104.338 30.7303 103.607 31.9811 102.755 33.2224C99.6106 34.3692 97.0402 34.0636 93.7538 34.0082C93.7593 34.2792 93.7618 34.5503 93.7612 34.8214C93.7586 38.5146 93.2514 43.2413 92.9763 47.0613L91.3484 69.6257L90.2389 85.7348C88.8766 106.301 86.6491 104.138 67.625 104.023C58.7717 104.037 49.9059 104.072 41.0636 104.037C37.6784 104.016 34.2891 103.264 32.3046 100.221C29.8597 96.4723 30.1134 90.2116 29.834 85.8044L28.7845 71.031L26.9011 44.9014C26.6688 41.2221 26.1404 37.7132 26.2419 34.0225C23.8337 34.0705 18.3307 34.5384 16.9466 32.7895C14.6105 30.0995 16.306 26.2592 19.7841 26.079C26.1106 25.7512 33.2308 25.7576 39.5414 26.0574C41.4056 18.3615 44.4619 12.4456 52.8657 11.0588ZM38.6626 96.0811C42.8967 95.6942 52.3345 95.8756 56.9373 95.9214C64.6625 95.9983 73.6539 95.6765 81.2418 95.9864L81.3232 92.1886L84.3662 50.0702C84.7268 45.3672 84.9433 38.3943 85.5242 33.9935L34.495 34.0252C35.1494 52.1832 37.6549 70.9517 38.4323 89.1726C38.5331 91.5332 38.9117 93.6914 38.6626 96.0811ZM47.9729 25.8964L65.4941 25.924C66.63 25.9355 71.2016 26.1341 71.8263 25.6791C72.2097 23.8615 68.6349 19.3145 66.1401 19.1541C62.703 18.933 58.6355 18.8115 55.1967 19.1067C49.7209 19.3001 49.9326 21.8841 47.9729 25.8964Z"/><path fill="#FEFEFE" d="M58.5494 51.0313C59.4996 50.9609 60.4463 50.9351 61.3625 51.2404C62.1764 51.5116 63.0439 52.0607 63.4344 52.8552C64.361 54.7405 64.5282 74.3385 63.7514 76.5881C63.3238 77.8264 62.241 78.4178 61.1324 78.9587C60.3218 79.0301 59.6056 79.101 58.8091 78.9018C57.8768 78.661 57.0791 78.0583 56.5929 77.2272C55.554 75.4364 55.8374 56.8563 56.1785 53.5873C56.3021 52.4024 57.5557 51.6077 58.5494 51.0313Z"/></svg>